<svg xmlns="http://www.w3.org/2000/svg" viewBox="0 0 64 64" id="doctor"><path fill="#f2b9a1" d="M40,41H39a2,2,0,0,1-2-2V36.508H27V39a2,2,0,0,1-2,2H24l8,17Z"></path><path fill="#fbe1ca" d="M33.093,55.678l6.866-14.591c-.02-.03-.041-.057-.06-.087H39a2,2,0,0,1-2-2v-.492H29.746a.492.492,0,0,0-.492.492h0a3.009,3.009,0,0,1-3,3h0Z"></path><polygon fill="#9c9d9e" points="27.2 47.8 32 43 36.8 47.8 32 58 27.2 47.8"></polygon><path fill="#d7d7d8" d="M40,41l9.882,3.294a4,4,0,0,1,2.629,2.879l2.911,12.369A2,2,0,0,1,53.475,62H10.525a2,2,0,0,1-1.947-2.458l2.911-12.369a4,4,0,0,1,2.629-2.879L24,41l8,17Z"></path><polygon fill="#d7d7d8" points="36.8 47.8 32 43 40 41 36.8 47.8"></polygon><polygon fill="#d7d7d8" points="27.2 47.8 32 43 24 41 27.2 47.8"></polygon><polygon fill="#295581" points="34.542 52.598 33 49 31 49 29.458 52.598 32 58 34.542 52.598"></polygon><polygon fill="#2981bd" points="31 49 30 45 32 43 34 45 33 49 31 49"></polygon><path fill="#d7d7d8" d="M40,41l9.882,3.294a4,4,0,0,1,2.629,2.879l2.911,12.369A2,2,0,0,1,53.475,62H10.525a2,2,0,0,1-1.947-2.458l2.911-12.369a4,4,0,0,1,2.629-2.879L24,41l8,17Z"></path><path fill="#f2f2f2" d="M53.475,62a2,2,0,0,0,1.947-2.458L52.511,47.173a4,4,0,0,0-2.629-2.879L40,41,32,58,24.471,42l-6.878,2.293a4,4,0,0,0-2.629,2.879l-2.91,12.369A2,2,0,0,0,14,62H53.475Z"></path><path fill="#f2b9a1" d="M45 11V25c0 6.075-4.925 12-11 12H30c-6.075 0-11-5.925-11-12V11zM45 25h0a4 4 0 0 0 4-4h0a3.993 3.993 0 0 0-1.3-2.951H45zM19 25h0a4 4 0 0 1-4-4h0a3.993 3.993 0 0 1 1.3-2.951H19z"></path><path fill="#4a4b4c" d="M21.507,58H20V56h1.507a1,1,0,0,0,.975-1.217L21.2,49H16.8l-1.284,5.783A1,1,0,0,0,16.493,56H18v2H16.493a3,3,0,0,1-2.929-3.65l1.459-6.567A1,1,0,0,1,16,47h6a1,1,0,0,1,.977.783l1.459,6.567A3,3,0,0,1,21.507,58Z"></path><path fill="#4a4b4c" d="M20,48H18V41a11.006,11.006,0,0,1,3.748-8.271l1.318,1.5A9.011,9.011,0,0,0,20,41Z"></path><path fill="#4a4b4c" d="M43,42v7.184a3,3,0,1,0,2,0V42.667Z" opacity=".1"></path><path fill="#4a4b4c" d="M46,49H44V41a9,9,0,0,0-3.066-6.767l1.318-1.5A11,11,0,0,1,46,41Z"></path><circle cx="45" cy="51" r="3" fill="#bdbdbe"></circle><path fill="#4a4b4c" d="M15.493,59H17V57H15.493a1,1,0,0,1-.975-1.217L15.8,50h4.4l1.284,5.783A1,1,0,0,1,20.507,57H19v2h1.507a3,3,0,0,0,2.929-3.65l-1.459-6.567A1,1,0,0,0,21,48H19V42.667l-2,.666V48H15a1,1,0,0,0-.977.783L12.564,55.35A3,3,0,0,0,15.493,59Z" opacity=".1"></path><path fill="#fbe1ca" d="M45,25V11H21V25c0,6.075,4.925,12,11,12h2C40.075,37,45,31.075,45,25Z"></path><path fill="#393a3a" d="M32,13h1l2.578-1.789A2,2,0,0,1,36.472,11H42a1,1,0,0,1,1,1v6a1,1,0,0,0,1,1h2a2,2,0,0,0,2-2V8a6,6,0,0,0-6-6H22a6,6,0,0,0-6,6v9a2,2,0,0,0,2,2h2a1,1,0,0,0,1-1V12a1,1,0,0,1,1-1h5.528a2,2,0,0,1,.894.211L31,13Z"></path><path fill="#393a3a" d="M32,13h1l2.578-1.789A2,2,0,0,1,36.472,11H42a1,1,0,0,1,1,1v6a1,1,0,0,0,1,1h2a2,2,0,0,0,2-2V8a6,6,0,0,0-6-6H22a6,6,0,0,0-6,6v9a2,2,0,0,0,2,2h2a1,1,0,0,0,1-1V12a1,1,0,0,1,1-1h5.528a2,2,0,0,1,.894.211L31,13Z"></path><path fill="#4a4b4c" d="M42,2H22a5.967,5.967,0,0,0-1.043.1V18.215A.964.964,0,0,0,21,18V12a1,1,0,0,1,1-1h5.528a2,2,0,0,1,.894.211L31,13h2l2.578-1.789A2,2,0,0,1,36.472,11H42a1,1,0,0,1,1,1v6a1,1,0,0,0,1,1h2a2,2,0,0,0,2-2V8A6,6,0,0,0,42,2Z"></path><path d="M10.525,63h42.95A3,3,0,0,0,56.4,59.312L53.485,46.943a5.035,5.035,0,0,0-3.286-3.6l-4.2-1.4V41a11,11,0,0,0-3.036-7.575A13.532,13.532,0,0,0,45.955,25.9a4.966,4.966,0,0,0,2.905-8.046A2.975,2.975,0,0,0,49,17V8a7.008,7.008,0,0,0-7-7H22a7.008,7.008,0,0,0-7,7v9a2.975,2.975,0,0,0,.14.858A4.966,4.966,0,0,0,18.045,25.9a13.532,13.532,0,0,0,2.991,7.521A10.994,10.994,0,0,0,18,41v.946l-4.2,1.4a5.035,5.035,0,0,0-3.286,3.6L7.6,59.313A3,3,0,0,0,10.525,63ZM44,41v.279l-3.684-1.227A.956.956,0,0,0,40,40.007V40H39a1,1,0,0,1-1-1V37.179a12.225,12.225,0,0,0,3.6-2.294A9,9,0,0,1,44,41ZM28,37.787A10.187,10.187,0,0,0,30,38h4a10.187,10.187,0,0,0,2-.213V39a2.969,2.969,0,0,0,.626,1.813L32,41.969l-4.626-1.156A2.969,2.969,0,0,0,28,39ZM32.22,48h-.44l-.673-2.693L32,44.414l.893.893Zm-2.175-4.459L27.5,46.087l-1.7-3.606Zm-.586,3.414.49,1.96-.533,1.244L28.4,48.01ZM31.659,50h.682l1.1,2.578L32,55.651l-1.446-3.073Zm2.925.159-.533-1.244.49-1.96L35.6,48.01ZM36.5,46.087l-2.546-2.546,4.243-1.06ZM46,23.816V20a2.966,2.966,0,0,0,1.6-.47A2.953,2.953,0,0,1,46,23.816ZM17,8a5.006,5.006,0,0,1,5-5H42a5.006,5.006,0,0,1,5,5v9a1,1,0,0,1-1,1H44V12a2,2,0,0,0-2-2H36.472a3.014,3.014,0,0,0-1.341.316,1.077,1.077,0,0,0-.123.073L32.688,12H31.312l-2.32-1.611a1.077,1.077,0,0,0-.123-.073A3.014,3.014,0,0,0,27.528,10H22a2,2,0,0,0-2,2v6H18a1,1,0,0,1-1-1ZM16,21a2.989,2.989,0,0,1,.4-1.47A2.966,2.966,0,0,0,18,20v3.816A3,3,0,0,1,16,21Zm4-1a2,2,0,0,0,2-2V12h5.528a1,1,0,0,1,.393.081l2.509,1.741A1,1,0,0,0,31,14h2a1,1,0,0,0,.57-.178l2.509-1.741A1,1,0,0,1,36.472,12H42v6a2,2,0,0,0,2,2v5c0,5.757-4.767,11-10,11H30c-5.233,0-10-5.243-10-11Zm0,21a9,9,0,0,1,2.4-6.115A12.225,12.225,0,0,0,26,37.179V39a1,1,0,0,1-1,1H24v.007a.956.956,0,0,0-.316.045L20,41.279ZM9.552,59.771,12.462,47.4a3.02,3.02,0,0,1,1.972-2.16L18,44.054V47H16a1,1,0,0,0-.977.783L13.564,54.35A3,3,0,0,0,16.493,58H18V56H16.493a1,1,0,0,1-.975-1.217L16.8,49h4.4l1.284,5.783A1,1,0,0,1,21.507,56H20v2h1.507a3,3,0,0,0,2.929-3.65l-1.459-6.567A1,1,0,0,0,22,47H20V43.387l3.474-1.158,7.621,16.2a1,1,0,0,0,1.81,0l7.621-16.2L44,43.387v3.755a4,4,0,1,0,2,0V44.054l3.566,1.188a3.02,3.02,0,0,1,1.972,2.16l2.91,12.369A1,1,0,0,1,53.475,61H10.525a1,1,0,0,1-.973-1.229ZM45,49a2,2,0,1,1-2,2A2,2,0,0,1,45,49Z"></path></svg>