<svg xmlns="http://www.w3.org/2000/svg" viewBox="0 0 64 64" id="patient"><path fill="#898890" d="M49 46v13H19a4 4 0 0 1-4-4v-9a8 8 0 0 1 8-8h18a8 8 0 0 1 8 8Z"></path><path fill="#00b6bd" d="M39 27v11c0 1.2-1.63 2.23-4 2.71-.32.06-.65.12-1 .16-.32.05-.66.08-1 .1s-.66.03-1 .03c-3.87 0-7-1.34-7-3V27Z"></path><path fill="#3e3d42" d="M39 32.14A10.088 10.088 0 0 1 32 35a9.947 9.947 0 0 1-7-2.86v1a10 10 0 0 0 14 0Z"></path><path fill="#ffdaaa" d="M22 15h20v10a10 10 0 0 1-10 10 10 10 0 0 1-10-10V15Z"></path><path fill="#ffc477" d="M22 16v6h-2a2.006 2.006 0 0 1-2-2v-2a2.006 2.006 0 0 1 2-2zm24 2v2a2.006 2.006 0 0 1-2 2h-2v-6h2a2.006 2.006 0 0 1 2 2z"></path><path fill="#bdfdff" d="M38.7 54.3A4.788 4.788 0 0 1 39 56a4.941 4.941 0 0 1-1 3 5.01 5.01 0 0 1-4 2h-2Z"></path><path fill="#2488ff" d="m28 61 9-9a4.691 4.691 0 0 1 .54.46 5.051 5.051 0 0 1 1.16 1.84L32 61Z"></path><path fill="#bdfdff" d="m37 52-9 9h-4v-1l9-9h1a4.941 4.941 0 0 1 3 1Z"></path><path fill="#2488ff" d="M29 51h4l-9 9v-4l5-5z"></path><path fill="#bdfdff" d="m29 51-5 5v-5h5z"></path><path fill="#2488ff" d="M36 12h5.95c.03.33.05.66.05 1v2h-9Z"></path><path fill="#5aaae7" d="M41.95 12H36l4.41-4.41A9.948 9.948 0 0 1 41.95 12Z"></path><path fill="#d1e7f8" d="M40.41 7.59 36 12l-3 3h-7L36.78 4.22a10.031 10.031 0 0 1 3.63 3.37Z"></path><path fill="#2488ff" d="M36.78 4.22 26 15h-4v-2L32 3a9.9 9.9 0 0 1 4.78 1.22Z"></path><path fill="#d1e7f8" d="M32 3 22 13A10 10 0 0 1 32 3Z"></path><path fill="#2d2d30" d="M28 23a1 1 0 0 1-1-1v-2a1 1 0 0 1 2 0v2a1 1 0 0 1-1 1zm8 0a1 1 0 0 1-1-1v-2a1 1 0 0 1 2 0v2a1 1 0 0 1-1 1zm0 7h-2a2 2 0 0 0-4 0h-2a4 4 0 0 1 8 0z"></path><path fill="#009698" d="M28 37h2v2h-2zM35 39v1.71c-.32.06-.65.12-1 .16-.32.05-.66.08-1 .1V39Z"></path><path fill="#787680" d="M22 48h2v13h-2z"></path><path fill="#009698" d="M37 35h2v2h-2z"></path></svg>